<?xml version="1.0" encoding="utf-8" standalone="no"?>
<!DOCTYPE svg PUBLIC "-//W3C//DTD SVG 1.1//EN"
  "http://www.w3.org/Graphics/SVG/1.1/DTD/svg11.dtd">
<svg xmlns:xlink="http://www.w3.org/1999/xlink" width="432pt" height="288pt" viewBox="0 0 432 288" xmlns="http://www.w3.org/2000/svg" version="1.1">
 <metadata>
  <rdf:RDF xmlns:dc="http://purl.org/dc/elements/1.1/" xmlns:cc="http://creativecommons.org/ns#" xmlns:rdf="http://www.w3.org/1999/02/22-rdf-syntax-ns#">
   <cc:Work>
    <dc:type rdf:resource="http://purl.org/dc/dcmitype/StillImage"/>
    <dc:date>2023-03-04T18:17:27.259603</dc:date>
    <dc:format>image/svg+xml</dc:format>
    <dc:creator>
     <cc:Agent>
      <dc:title>Matplotlib v3.5.1, https://matplotlib.org/</dc:title>
     </cc:Agent>
    </dc:creator>
   </cc:Work>
  </rdf:RDF>
 </metadata>
 <defs>
  <style type="text/css">*{stroke-linejoin: round; stroke-linecap: butt}</style>
 </defs>
 <g id="figure_1">
  <g id="patch_1">
   <path d="M 0 288 
L 432 288 
L 432 0 
L 0 0 
L 0 288 
z
" style="fill: none"/>
  </g>
  <g id="axes_1">
   <g id="PathCollection_1">
    <path d="M 177.257136 43.619448 
L 194.378902 39.801773 
L 215.167104 34.96863 
L 219.762014 51.115586 
L 219.587349 55.827241 
L 210.12413 59.976511 
L 197.492174 64.866862 
L 182.161375 77.253118 
L 182.142396 77.214088 
L 182.149942 77.20758 
L 181.72501 76.355503 
L 180.001387 72.91988 
L 184.164706 68.790012 
L 181.765158 66.699094 
z
" clip-path="url(#p699ca2de70)" style="fill: #efefdb; stroke: #000000"/>
    <path d="M 215.167104 34.96863 
L 194.378902 39.801773 
L 177.257136 43.619448 
L 176.809591 21.88671 
L 195.031282 17.667093 
L 221.528211 10.742325 
L 222.963779 7.198182 
L 227.019504 3.890956 
L 229.758897 3.723159 
L 233.998004 19.462929 
L 245.747237 33.042259 
L 255.115946 31.113314 
L 249.661071 21.023852 
L 258.177862 25.637235 
L 258.888875 34.577833 
L 245.333927 43.69394 
L 234.497951 46.142931 
L 232.618104 41.793228 
L 228.185295 39.371195 
L 224.391066 32.075601 
z
" clip-path="url(#p699ca2de70)" style="fill: #efefdb; stroke: #000000"/>
    <path d="M 229.758897 3.723159 
L 227.019504 3.890956 
L 222.963779 7.198182 
L 221.528211 10.742325 
L 195.031282 17.667093 
L 192.454499 15.050194 
L 193.158486 10.739658 
L 191.61967 2.795258 
L 191.793842 0.761012 
L 190.657663 -6.4686 
L 191.442375 -13.034025 
L 192.514665 -16.104336 
L 193.177227 -23.843883 
L 192.373626 -28.760852 
L 192.303526 -31.850725 
L 196.038618 -34.402283 
L 199.876455 -39.157832 
L 199.69019 -43.083892 
L 196.944087 -46.915141 
L 197.187844 -55.687601 
L 197.150335 -55.693785 
L 197.224886 -63.613609 
L 203.531701 -66.989104 
L 221.914507 -13.274771 
L 221.927112 -10.130004 
L 227.152569 -6.873417 
L 229.339458 -3.027725 
L 231.536937 -3.977426 
z
" clip-path="url(#p699ca2de70)" style="fill: #efefdb; stroke: #000000"/>
    <path d="M 219.587349 55.827241 
L 219.762014 51.115586 
L 215.167104 34.96863 
L 224.391066 32.075601 
L 228.185295 39.371195 
L 232.618104 41.793228 
L 234.497951 46.142931 
z
" clip-path="url(#p699ca2de70)" style="fill: #efefdb; stroke: #000000"/>
    <path d="M 195.031282 17.667093 
L 176.809591 21.88671 
L 171.452725 -2.92202 
L 168.286341 -2.350193 
L 167.595941 -3.384447 
L 167.870844 -8.060838 
L 163.91162 -15.361417 
L 164.503786 -22.089007 
L 162.164832 -26.341231 
L 159.402755 -35.083466 
L 159.271528 -39.142921 
L 158.167775 -45.314394 
L 197.150335 -55.693785 
L 197.187844 -55.687601 
L 196.944087 -46.915141 
L 199.69019 -43.083892 
L 199.876455 -39.157832 
L 196.038618 -34.402283 
L 192.303526 -31.850725 
L 192.373626 -28.760852 
L 193.177227 -23.843883 
L 192.514665 -16.104336 
L 191.442375 -13.034025 
L 190.657663 -6.4686 
L 191.793842 0.761012 
L 191.61967 2.795258 
L 193.158486 10.739658 
L 192.454499 15.050194 
z
" clip-path="url(#p699ca2de70)" style="fill: #efefdb; stroke: #000000"/>
    <path d="M -40.531242 429.325521 
L -42.271055 425.861947 
L -44.418145 422.150877 
L -44.299753 417.031609 
L -44.30111 411.533722 
L -46.412463 405.930075 
L -46.135442 396.012112 
L -42.491986 390.108832 
L -45.429636 384.912292 
L -50.301811 375.792551 
L -59.976128 346.131481 
L -70.956644 308.988444 
L -51.567499 306.96 
L -38.226739 304.964552 
L -7.016087 300.959582 
L -9.399594 303.877063 
L -12.610016 310.208066 
L -5.105668 314.302244 
L -0.468444 315.523244 
L 5.639511 324.461599 
L 9.450994 329.408619 
L 19.371302 335.289566 
L 21.698265 338.804497 
L 28.501805 342.828032 
L 32.60769 349.604616 
L 41.761847 354.435168 
L 44.715533 361.091378 
L 46.783458 364.208331 
L 46.261146 366.589602 
L 51.603252 369.139398 
L 55.081125 374.42008 
L 55.997658 380.223706 
L 58.555846 380.958488 
L 63.25922 381.777412 
L 53.978976 401.856885 
L 53.440923 424.197458 
L 47.779887 424.522787 
L 42.204673 423.09767 
L 39.183404 424.628565 
L 40.761269 435.270085 
L 37.758877 438.534698 
L 34.976405 433.492434 
L -8.655783 435.077498 
L -35.496772 437.101044 
z
" clip-path="url(#p699ca2de70)" style="fill: #efefdb; stroke: #000000"/>
    <path d="M 63.25922 381.777412 
L 58.555846 380.958488 
L 55.997658 380.223706 
L 55.081125 374.42008 
L 51.603252 369.139398 
L 46.261146 366.589602 
L 46.783458 364.208331 
L 44.715533 361.091378 
L 41.761847 354.435168 
L 32.60769 349.604616 
L 28.501805 342.828032 
L 21.698265 338.804497 
L 19.371302 335.289566 
L 9.450994 329.408619 
L 5.639511 324.461599 
L -0.468444 315.523244 
L -5.105668 314.302244 
L -12.610016 310.208066 
L -9.399594 303.877063 
L -7.016087 300.959582 
L -4.643661 299.698842 
L 8.069096 292.503352 
L 31.090992 289.184521 
L 42.977489 288.675005 
L 43.62045 291.319576 
L 45.790564 288.898047 
L 50.556468 293.371321 
L 51.086079 296.908558 
L 78.861948 292.353179 
L 112.271634 315.666921 
L 101.600095 329.221968 
L 99.877037 340.055839 
L 75.336381 364.809865 
z
" clip-path="url(#p699ca2de70)" style="fill: #efefdb; stroke: #000000"/>
    <path d="M -7.016087 300.959582 
L -38.226739 304.964552 
L -38.504438 298.445041 
L -33.466284 295.836534 
L -32.168884 292.337936 
L -29.128784 288.177734 
L -24.195357 286.690257 
L -18.547715 284.485834 
L -13.2399 281.066045 
L -11.169077 278.031551 
L -6.801641 274.925677 
L -7.251758 272.742318 
L -1.647674 267.720558 
L 0.745591 270.091567 
L 8.988528 263.002739 
L 13.324978 262.944143 
L 16.318541 257.268395 
L 21.110071 255.165718 
L 20.150926 250.879894 
L 20.16875 246.981125 
L 10.694096 248.934338 
L 20.168765 246.981047 
L 61.558435 241.359208 
L 110.058425 232.325051 
L 135.662452 226.766 
L 158.556989 221.620894 
L 161.575841 220.923707 
L 161.575843 220.923714 
L 171.76855 250.104056 
L 161.078315 275.835517 
L 137.300069 290.233552 
L 124.45197 311.2567 
L 112.271634 315.666921 
L 78.861948 292.353179 
L 51.086079 296.908558 
L 50.556468 293.371321 
L 45.790564 288.898047 
L 43.62045 291.319576 
L 42.977489 288.675005 
L 31.090992 289.184521 
L 8.069096 292.503352 
L -4.643661 299.698842 
z
" clip-path="url(#p699ca2de70)" style="fill: #efefdb; stroke: #000000"/>
    <path d="M -66.33871 181.13573 
L -68.810028 160.02194 
L -72.290344 130.373691 
L -75.629359 102.799195 
L -63.97174 101.093113 
L -53.586117 99.721506 
L -45.019219 98.271464 
L -45.018735 98.270707 
L -45.021989 98.277456 
L -30.052495 102.562899 
L -18.430314 102.424897 
L -2.546816 95.822807 
L 9.540775 85.248927 
L 20.486589 79.200627 
L 27.408116 119.722511 
L 24.473954 121.790109 
L 26.106196 125.464017 
L 26.21698 132.60873 
L 25.157599 140.888456 
L 24.002193 147.798552 
L 24.131196 150.985259 
L 18.9087 158.944579 
L 16.442989 160.863027 
L 13.410565 162.227705 
L 10.454239 162.014547 
L 6.042016 168.058044 
L 5.943596 173.674545 
L 5.670249 176.740406 
L 3.754377 178.272673 
L 2.925646 174.93735 
L -0.391597 174.696932 
L -2.712785 181.784892 
L -2.061449 188.562444 
L -4.522181 193.236939 
L -10.326044 194.895308 
L -15.197095 192.645737 
L -17.721874 188.669597 
L -22.156183 189.835109 
L -27.022722 192.232227 
L -31.453591 191.067673 
L -37.010204 192.701201 
L -41.012869 190.739309 
L -46.352852 189.258623 
L -53.565125 183.216294 
L -58.133312 180.825187 
z
" clip-path="url(#p699ca2de70)" style="fill: #efefdb; stroke: #000000"/>
    <path d="M -20.604363 250.379626 
L -17.080334 248.465639 
L -15.521737 245.577138 
L -15.316975 245.196922 
L -14.962712 244.934086 
L -9.167272 240.617761 
L -7.046504 237.041835 
L -6.816957 234.498369 
L -6.81695 234.498364 
L -6.816944 234.498305 
L 0.230761 229.819499 
L 6.398663 222.011271 
L 8.522183 219.305223 
L 10.397888 224.284745 
L 12.900092 226.119667 
L 13.554739 226.598797 
L 17.618686 228.453212 
L 22.761482 224.894282 
L 24.664223 223.571747 
L 24.664238 223.571754 
L 24.664238 223.571754 
L 27.917339 225.227494 
L 35.125499 221.854169 
L 36.515391 221.199976 
L 36.557103 219.491889 
L 36.583318 218.407475 
L 39.496478 219.017408 
L 41.963461 216.44948 
L 42.105634 216.301214 
L 42.105638 216.301214 
L 42.105643 216.301208 
L 45.533761 216.156312 
L 48.950911 213.158475 
L 48.973103 211.515855 
L 48.989206 210.302055 
L 47.975343 206.822022 
L 47.975347 206.822014 
L 47.975344 206.822004 
L 50.304787 201.026657 
L 54.222004 196.26272 
L 54.600068 191.596759 
L 56.350466 188.174599 
L 57.714407 185.497808 
L 58.79555 178.524046 
L 58.795552 178.524047 
L 58.795563 178.523977 
L 62.368219 180.280118 
L 66.29043 181.784016 
L 69.473649 179.988224 
L 70.101097 177.031543 
L 71.723835 172.847044 
L 72.852416 169.884681 
L 73.538001 168.079345 
L 73.538012 168.079351 
L 73.538024 168.079319 
L 75.485557 169.013027 
L 78.231362 164.457027 
L 80.483119 161.63219 
L 82.071409 159.633351 
L 82.734268 158.622441 
L 84.40381 156.070404 
L 84.61949 149.470602 
L 84.675865 147.69909 
L 84.67587 147.699092 
L 84.675872 147.69902 
L 97.01067 152.946294 
L 98.237975 153.463012 
L 99.712598 147.284846 
L 100.380105 147.343672 
L 103.341885 147.602008 
L 106.90844 149.218653 
L 106.908426 149.2187 
L 106.908455 149.218714 
L 106.08621 152.017027 
L 105.855478 152.800201 
L 111.172394 153.58569 
L 116.237582 156.021894 
L 116.237608 156.021915 
L 118.72857 158.182278 
L 118.990001 159.967619 
L 118.990001 159.967625 
L 119.081424 162.485304 
L 118.304136 163.322438 
L 115.667647 166.154922 
L 114.38139 173.402381 
L 117.861416 174.381963 
L 121.425318 172.27165 
L 123.213549 175.368071 
L 123.69606 176.202392 
L 142.086089 182.319917 
L 149.392625 210.590482 
L 156.750011 211.126911 
L 161.575853 220.923712 
L 161.575843 220.923714 
L 161.575841 220.923707 
L 158.556989 221.620894 
L 135.662452 226.766 
L 110.058425 232.325051 
L 61.558435 241.359208 
L 20.168765 246.981047 
L 10.694096 248.934338 
L 7.867597 249.508793 
L -28.69069 253.753446 
L -21.851596 251.054986 
z
" clip-path="url(#p699ca2de70)" style="fill: #efefdb; stroke: #000000"/>
    <path d="M 163.310392 174.469991 
L 155.367204 201.390746 
L 152.923127 200.690611 
L 155.695495 178.677052 
L 155.6955 178.677004 
L 157.922606 176.189673 
L 163.310419 174.469897 
z
" clip-path="url(#p699ca2de70)" style="fill: #efefdb; stroke: #000000"/>
    <path d="M 8.522183 219.305223 
L 3.73623 219.469818 
L 0.763009 216.165115 
L -3.348383 212.766736 
L -5.198215 208.336362 
L -8.761336 204.028853 
L -9.441684 197.716025 
L -10.326044 194.895308 
L -4.522181 193.236939 
L -2.061449 188.562444 
L -2.712785 181.784892 
L -0.391597 174.696932 
L 2.925646 174.93735 
L 3.754377 178.272673 
L 5.670249 176.740406 
L 5.943596 173.674545 
L 6.042016 168.058044 
L 10.454239 162.014547 
L 13.410565 162.227705 
L 16.442989 160.863027 
L 18.9087 158.944579 
L 24.131196 150.985259 
L 24.002193 147.798552 
L 25.157599 140.888456 
L 26.21698 132.60873 
L 26.106196 125.464017 
L 24.473954 121.790109 
L 27.408116 119.722511 
L 32.193597 147.541075 
L 56.475319 143.220626 
L 59.090262 158.562089 
L 62.190351 155.201287 
L 65.5536 150.975497 
L 69.952721 148.907464 
L 72.475402 145.157078 
L 79.592746 145.039651 
L 81.697138 142.314262 
L 85.729428 139.154672 
L 93.392655 140.105712 
L 97.094326 143.827333 
L 99.712598 147.284846 
L 98.237975 153.463012 
L 97.01067 152.946294 
L 84.675872 147.69902 
L 84.67587 147.699092 
L 84.675865 147.69909 
L 84.61949 149.470602 
L 84.40381 156.070404 
L 82.734268 158.622441 
L 82.071409 159.633351 
L 80.483119 161.63219 
L 78.231362 164.457027 
L 75.485557 169.013027 
L 73.538024 168.079319 
L 73.538012 168.079351 
L 73.538001 168.079345 
L 72.852416 169.884681 
L 71.723835 172.847044 
L 70.101097 177.031543 
L 69.473649 179.988224 
L 66.29043 181.784016 
L 62.368219 180.280118 
L 58.795563 178.523977 
L 58.795552 178.524047 
L 58.79555 178.524046 
L 57.714407 185.497808 
L 56.350466 188.174599 
L 54.600068 191.596759 
L 54.222004 196.26272 
L 50.304787 201.026657 
L 47.975344 206.822004 
L 47.975347 206.822014 
L 47.975343 206.822022 
L 48.989206 210.302055 
L 48.973103 211.515855 
L 48.950911 213.158475 
L 45.533761 216.156312 
L 42.105643 216.301208 
L 42.105638 216.301214 
L 42.105634 216.301214 
L 41.963461 216.44948 
L 39.496478 219.017408 
L 36.583318 218.407475 
L 36.557103 219.491889 
L 36.515391 221.199976 
L 35.125499 221.854169 
L 27.917339 225.227494 
L 24.664238 223.571754 
L 24.664238 223.571754 
L 24.664223 223.571747 
L 22.761482 224.894282 
L 17.618686 228.453212 
L 13.554739 226.598797 
L 12.900092 226.119667 
L 10.397888 224.284745 
z
" clip-path="url(#p699ca2de70)" style="fill: #efefdb; stroke: #000000"/>
    <path d="M 168.050461 159.722884 
L 152.394326 163.32028 
L 142.058285 125.599885 
L 143.295363 122.840618 
L 145.063124 121.023436 
L 150.383357 121.434985 
L 147.668153 125.339365 
L 149.598541 130.956448 
L 158.139434 145.939867 
L 165.167479 149.903491 
z
" clip-path="url(#p699ca2de70)" style="fill: #efefdb; stroke: #000000"/>
    <path d="M 118.990001 159.967625 
L 118.990001 159.967619 
L 118.72857 158.182278 
L 116.237608 156.021915 
L 117.828444 154.176489 
L 121.464988 156.654888 
z
" clip-path="url(#p699ca2de70)" style="fill: #efefdb; stroke: #000000"/>
    <path d="M 163.310392 174.469991 
L 163.310419 174.469897 
L 157.922606 176.189673 
L 155.6955 178.677004 
L 155.695495 178.677052 
L 141.061601 169.946535 
L 132.833261 145.675554 
L 131.155019 159.612964 
L 140.34003 177.514049 
L 123.696062 176.202371 
L 123.213549 175.368071 
L 121.425318 172.27165 
L 117.861416 174.381963 
L 114.38139 173.402381 
L 115.667647 166.154922 
L 118.304136 163.322438 
L 119.081424 162.485304 
L 118.990001 159.967625 
L 121.464988 156.654888 
L 117.828444 154.176489 
L 116.237608 156.021915 
L 116.237582 156.021894 
L 111.172394 153.58569 
L 105.855478 152.800201 
L 106.08621 152.017027 
L 106.908455 149.218714 
L 106.908426 149.2187 
L 106.90844 149.218653 
L 103.341885 147.602008 
L 100.380105 147.343672 
L 99.712598 147.284846 
L 97.094326 143.827333 
L 93.392655 140.105712 
L 85.729428 139.154672 
L 81.697138 142.314262 
L 79.592746 145.039651 
L 72.475402 145.157078 
L 69.952721 148.907464 
L 65.5536 150.975497 
L 62.190351 155.201287 
L 59.090262 158.562089 
L 56.475319 143.220626 
L 78.067118 139.170055 
L 85.424318 137.677085 
L 101.870333 134.219896 
L 121.714573 130.180984 
L 142.058285 125.599885 
L 152.394326 163.32028 
L 168.050461 159.722884 
L 168.167259 161.101507 
L 163.310448 174.469973 
z
" clip-path="url(#p699ca2de70)" style="fill: #efefdb; stroke: #000000"/>
    <path d="M 149.598541 130.956448 
L 147.668153 125.339365 
L 150.383357 121.434985 
L 154.465525 117.606832 
L 155.685728 115.355221 
L 160.199105 110.125545 
L 162.372353 106.174085 
L 153.352991 100.148112 
L 152.214086 97.08013 
L 149.524921 96.723992 
L 148.513443 91.892423 
L 150.315051 87.619422 
L 148.193347 84.013245 
L 151.192568 80.540085 
L 153.55073 72.921938 
L 155.989506 70.954575 
L 176.129871 78.538228 
L 176.781259 84.998024 
L 171.89954 94.961096 
L 178.932762 94.678269 
L 179.255982 117.290389 
L 167.9312 144.298879 
L 164.384207 137.033097 
L 158.921988 136.679428 
z
" clip-path="url(#p699ca2de70)" style="fill: #efefdb; stroke: #000000"/>
    <path d="M 177.257136 43.619448 
L 181.765158 66.699094 
L 184.164706 68.790012 
L 180.001387 72.91988 
L 181.72501 76.355503 
L 182.149942 77.20758 
L 182.142396 77.214088 
L 180.924553 78.263545 
L 212.524076 64.109617 
L 220.686705 67.93257 
L 191.440686 85.137767 
L 177.01085 88.824772 
L 176.781259 84.998024 
L 176.129871 78.538228 
L 155.989506 70.954575 
L 151.855229 69.701437 
L 147.536535 68.534428 
L 145.065743 64.524883 
L 144.886685 61.095041 
L 141.58917 59.012741 
L 135.63798 55.437936 
L 105.249435 62.163806 
L 72.564783 68.937784 
L 37.458804 75.590684 
L 35.97847 67.395512 
L 51.83956 45.83198 
L 50.848031 42.959259 
L 50.847002 42.937534 
L 47.15609 34.232449 
L 56.944044 28.770301 
L 74.47164 26.446652 
L 93.012977 25.18841 
L 107.295869 11.69171 
L 103.415715 0.277364 
L 100.267502 -3.442363 
L 117.5743 -29.382437 
L 125.915189 -37.172023 
L 158.167775 -45.314394 
L 159.271528 -39.142921 
L 159.402755 -35.083466 
L 162.164832 -26.341231 
L 164.503786 -22.089007 
L 163.91162 -15.361417 
L 167.870844 -8.060838 
L 167.595941 -3.384447 
L 168.286341 -2.350193 
L 171.452725 -2.92202 
L 176.809591 21.88671 
z
" clip-path="url(#p699ca2de70)" style="fill: #efefdb; stroke: #000000"/>
    <path d="M 27.408116 119.722511 
L 20.486589 79.200627 
L 20.494299 79.196335 
L 35.938906 67.448504 
L 35.97847 67.395512 
L 37.458804 75.590684 
L 72.564783 68.937784 
L 105.249435 62.163806 
L 135.63798 55.437936 
L 141.58917 59.012741 
L 144.886685 61.095041 
L 145.065743 64.524883 
L 147.536535 68.534428 
L 151.855229 69.701437 
L 155.989506 70.954575 
L 153.55073 72.921938 
L 151.192568 80.540085 
L 148.193347 84.013245 
L 150.315051 87.619422 
L 148.513443 91.892423 
L 149.524921 96.723992 
L 152.214086 97.08013 
L 153.352991 100.148112 
L 162.372353 106.174085 
L 160.199105 110.125545 
L 155.685728 115.355221 
L 154.465525 117.606832 
L 150.383357 121.434985 
L 145.063124 121.023436 
L 143.295363 122.840618 
L 142.058285 125.599885 
L 121.714573 130.180984 
L 101.870333 134.219896 
L 85.424318 137.677085 
L 78.067118 139.170055 
L 56.475319 143.220626 
L 32.193597 147.541075 
z
" clip-path="url(#p699ca2de70)" style="fill: #efefdb; stroke: #000000"/>
    <path d="M 231.536937 -3.977426 
L 229.339458 -3.027725 
L 227.152569 -6.873417 
L 221.927112 -10.130004 
L 221.914507 -13.274771 
L 203.531701 -66.989104 
L 211.120005 -74.118578 
L 214.616905 -89.750159 
L 214.132172 -114.711507 
L 222.926137 -141.76658 
L 232.018273 -136.008039 
L 243.973975 -145.250931 
L 255.631764 -139.569257 
L 268.506995 -99.358989 
L 287.431868 -87.150428 
L 294.192227 -78.729364 
L 276.410533 -57.256001 
L 257.813762 -40.319528 
L 237.868017 -24.840774 
z
" clip-path="url(#p699ca2de70)" style="fill: #efefdb; stroke: #000000"/>
   </g>
   <g id="PathCollection_2">
    <path d="M 300.480635 269.676526 
L 289.424304 257.874835 
L 278.452472 246.033334 
L 267.565012 234.15157 
L 256.761812 222.229093 
L 246.04277 210.265444 
L 235.407784 198.260154 
L 230.682059 182.059747 
L 220.186774 169.999502 
L 206.780325 165.245002 
L 193.440666 160.408957 
L 183.208619 148.183183 
L 178.7782 131.905628 
L 174.354218 115.624292 
L 169.936306 99.337656 
L 165.524095 83.044188 
L 161.117215 66.742343 
L 156.715292 50.430558 
L 152.317951 34.107256 
L 147.924813 17.770839 
" clip-path="url(#p699ca2de70)" style="fill: none; stroke: #ff0000"/>
   </g>
   <g id="PathCollection_3">
    <path d="M 300.480635 269.676526 
L 289.424304 257.874835 
L 278.452472 246.033334 
L 267.565012 234.15157 
L 256.761812 222.229093 
L 246.04277 210.265444 
L 235.407784 198.260154 
L 224.856769 186.212753 
L 211.361628 181.482198 
L 197.933232 176.669941 
L 193.440666 160.408957 
L 183.208619 148.183183 
L 173.060421 135.913502 
L 162.996031 123.599401 
L 153.015416 111.240361 
L 143.118552 98.835857 
L 133.305426 86.38535 
L 123.57603 73.888298 
L 113.930367 61.344143 
L 104.368449 48.752321 
" clip-path="url(#p699ca2de70)" style="fill: none; stroke: #008000"/>
   </g>
   <g id="PathCollection_4">
    <path d="M 300.480635 269.676526 
L 289.424304 257.874835 
L 278.452472 246.033334 
L 267.565012 234.15157 
L 256.761812 222.229093 
L 246.04277 210.265444 
L 235.407784 198.260154 
L 230.682059 182.059747 
L 225.964118 165.860854 
L 221.253574 149.662001 
L 210.86877 137.572384 
L 206.219993 121.35554 
L 195.972926 109.203243 
L 185.808805 97.004294 
L 175.727598 84.758163 
L 165.729286 72.464312 
L 155.813856 60.122189 
L 145.981304 47.731237 
L 136.231636 35.290883 
L 126.564864 22.800548 
" clip-path="url(#p699ca2de70)" style="fill: none; stroke: #0000ff"/>
   </g>
   <g id="PathCollection_5">
    <path d="M 300.480635 269.676526 
L 289.424304 257.874835 
L 278.452472 246.033334 
L 267.565012 234.15157 
L 256.761812 222.229093 
L 246.04277 210.265444 
L 235.407784 198.260154 
L 221.823027 193.590541 
L 211.361628 181.482198 
L 200.984229 169.331295 
L 196.458345 153.080095 
L 186.220081 140.871259 
L 173.060421 135.913502 
L 159.96858 130.875294 
L 146.945005 125.75706 
L 133.990145 120.559227 
L 121.104447 115.282225 
L 108.288356 109.926483 
L 95.542318 104.492435 
L 82.866777 98.980512 
" clip-path="url(#p699ca2de70)" style="fill: none; stroke: #ffa500"/>
   </g>
   <g id="PathCollection_6">
    <path d="M 300.480635 269.676526 
L 289.424304 257.874835 
L 278.452472 246.033334 
L 267.565012 234.15157 
L 256.761812 222.229093 
L 246.04277 210.265444 
L 235.407784 198.260154 
L 224.856769 186.212753 
L 220.186774 169.999502 
L 206.780325 165.245002 
L 202.206301 149.007434 
L 197.639182 132.768014 
L 184.47649 127.882409 
L 171.381146 122.915986 
L 158.353602 117.86917 
L 145.394308 112.742383 
L 132.503716 107.536052 
L 119.682275 102.250604 
L 106.930432 96.886467 
L 94.248636 91.444071 
" clip-path="url(#p699ca2de70)" style="fill: none; stroke: #ffff00"/>
   </g>
   <g id="PathCollection_7">
    <path d="M 300.480635 269.676526 
L 289.424304 257.874835 
L 278.452472 246.033334 
L 267.565012 234.15157 
L 256.761812 222.229093 
L 246.04277 210.265444 
L 235.407784 198.260154 
L 230.682059 182.059747 
L 225.964118 165.860854 
L 221.253574 149.662001 
L 216.550042 133.461711 
L 211.853132 117.258489 
L 207.162451 101.050832 
L 202.477608 84.837222 
L 197.798209 68.616129 
L 193.123856 52.386008 
L 188.454149 36.145296 
L 183.788687 19.892417 
L 179.127061 3.625774 
L 177.803652 -1 
" clip-path="url(#p699ca2de70)" style="fill: none; stroke: #808080"/>
   </g>
   <g id="PathCollection_8">
    <path d="M 300.480635 269.676526 
L 289.424304 257.874835 
L 278.452472 246.033334 
L 267.565012 234.15157 
L 256.761812 222.229093 
L 246.04277 210.265444 
L 235.407784 198.260154 
L 221.823027 193.590541 
L 208.30474 188.838894 
L 194.85337 184.00563 
L 181.469358 179.091187 
L 168.153149 174.095985 
L 154.905185 169.020462 
L 141.725907 163.865048 
L 128.615754 158.630176 
L 115.575166 153.316282 
L 102.60458 147.923804 
L 89.704432 142.453178 
L 76.875158 136.904847 
L 64.117192 131.27925 
" clip-path="url(#p699ca2de70)" style="fill: none; stroke: #ff00ff"/>
   </g>
   <g id="PathCollection_9">
    <defs>
     <path id="md0f8ce1501" d="M 0 3 
C 0.795609 3 1.55874 2.683901 2.12132 2.12132 
C 2.683901 1.55874 3 0.795609 3 0 
C 3 -0.795609 2.683901 -1.55874 2.12132 -2.12132 
C 1.55874 -2.683901 0.795609 -3 0 -3 
C -0.795609 -3 -1.55874 -2.683901 -2.12132 -2.12132 
C -2.683901 -1.55874 -3 -0.795609 -3 0 
C -3 0.795609 -2.683901 1.55874 -2.12132 2.12132 
C -1.55874 2.683901 -0.795609 3 0 3 
z
" style="stroke: #ff0000"/>
    </defs>
    <g clip-path="url(#p699ca2de70)">
     <use xlink:href="#md0f8ce1501" x="300.480635" y="269.676526" style="fill: #ff0000; stroke: #ff0000"/>
     <use xlink:href="#md0f8ce1501" x="289.424304" y="257.874835" style="fill: #ff0000; stroke: #ff0000"/>
     <use xlink:href="#md0f8ce1501" x="278.452472" y="246.033334" style="fill: #ff0000; stroke: #ff0000"/>
     <use xlink:href="#md0f8ce1501" x="267.565012" y="234.15157" style="fill: #ff0000; stroke: #ff0000"/>
     <use xlink:href="#md0f8ce1501" x="256.761812" y="222.229093" style="fill: #ff0000; stroke: #ff0000"/>
     <use xlink:href="#md0f8ce1501" x="246.04277" y="210.265444" style="fill: #ff0000; stroke: #ff0000"/>
     <use xlink:href="#md0f8ce1501" x="235.407784" y="198.260154" style="fill: #ff0000; stroke: #ff0000"/>
     <use xlink:href="#md0f8ce1501" x="230.682059" y="182.059747" style="fill: #ff0000; stroke: #ff0000"/>
     <use xlink:href="#md0f8ce1501" x="220.186774" y="169.999502" style="fill: #ff0000; stroke: #ff0000"/>
     <use xlink:href="#md0f8ce1501" x="206.780325" y="165.245002" style="fill: #ff0000; stroke: #ff0000"/>
     <use xlink:href="#md0f8ce1501" x="193.440666" y="160.408957" style="fill: #ff0000; stroke: #ff0000"/>
     <use xlink:href="#md0f8ce1501" x="183.208619" y="148.183183" style="fill: #ff0000; stroke: #ff0000"/>
     <use xlink:href="#md0f8ce1501" x="178.7782" y="131.905628" style="fill: #ff0000; stroke: #ff0000"/>
     <use xlink:href="#md0f8ce1501" x="174.354218" y="115.624292" style="fill: #ff0000; stroke: #ff0000"/>
     <use xlink:href="#md0f8ce1501" x="169.936306" y="99.337656" style="fill: #ff0000; stroke: #ff0000"/>
     <use xlink:href="#md0f8ce1501" x="165.524095" y="83.044188" style="fill: #ff0000; stroke: #ff0000"/>
     <use xlink:href="#md0f8ce1501" x="161.117215" y="66.742343" style="fill: #ff0000; stroke: #ff0000"/>
     <use xlink:href="#md0f8ce1501" x="156.715292" y="50.430558" style="fill: #ff0000; stroke: #ff0000"/>
     <use xlink:href="#md0f8ce1501" x="152.317951" y="34.107256" style="fill: #ff0000; stroke: #ff0000"/>
     <use xlink:href="#md0f8ce1501" x="147.924813" y="17.770839" style="fill: #ff0000; stroke: #ff0000"/>
    </g>
   </g>
   <g id="PathCollection_10">
    <defs>
     <path id="m1cf873e057" d="M 0 3 
C 0.795609 3 1.55874 2.683901 2.12132 2.12132 
C 2.683901 1.55874 3 0.795609 3 0 
C 3 -0.795609 2.683901 -1.55874 2.12132 -2.12132 
C 1.55874 -2.683901 0.795609 -3 0 -3 
C -0.795609 -3 -1.55874 -2.683901 -2.12132 -2.12132 
C -2.683901 -1.55874 -3 -0.795609 -3 0 
C -3 0.795609 -2.683901 1.55874 -2.12132 2.12132 
C -1.55874 2.683901 -0.795609 3 0 3 
z
" style="stroke: #008000"/>
    </defs>
    <g clip-path="url(#p699ca2de70)">
     <use xlink:href="#m1cf873e057" x="300.480635" y="269.676526" style="fill: #008000; stroke: #008000"/>
     <use xlink:href="#m1cf873e057" x="289.424304" y="257.874835" style="fill: #008000; stroke: #008000"/>
     <use xlink:href="#m1cf873e057" x="278.452472" y="246.033334" style="fill: #008000; stroke: #008000"/>
     <use xlink:href="#m1cf873e057" x="267.565012" y="234.15157" style="fill: #008000; stroke: #008000"/>
     <use xlink:href="#m1cf873e057" x="256.761812" y="222.229093" style="fill: #008000; stroke: #008000"/>
     <use xlink:href="#m1cf873e057" x="246.04277" y="210.265444" style="fill: #008000; stroke: #008000"/>
     <use xlink:href="#m1cf873e057" x="235.407784" y="198.260154" style="fill: #008000; stroke: #008000"/>
     <use xlink:href="#m1cf873e057" x="224.856769" y="186.212753" style="fill: #008000; stroke: #008000"/>
     <use xlink:href="#m1cf873e057" x="211.361628" y="181.482198" style="fill: #008000; stroke: #008000"/>
     <use xlink:href="#m1cf873e057" x="197.933232" y="176.669941" style="fill: #008000; stroke: #008000"/>
     <use xlink:href="#m1cf873e057" x="193.440666" y="160.408957" style="fill: #008000; stroke: #008000"/>
     <use xlink:href="#m1cf873e057" x="183.208619" y="148.183183" style="fill: #008000; stroke: #008000"/>
     <use xlink:href="#m1cf873e057" x="173.060421" y="135.913502" style="fill: #008000; stroke: #008000"/>
     <use xlink:href="#m1cf873e057" x="162.996031" y="123.599401" style="fill: #008000; stroke: #008000"/>
     <use xlink:href="#m1cf873e057" x="153.015416" y="111.240361" style="fill: #008000; stroke: #008000"/>
     <use xlink:href="#m1cf873e057" x="143.118552" y="98.835857" style="fill: #008000; stroke: #008000"/>
     <use xlink:href="#m1cf873e057" x="133.305426" y="86.38535" style="fill: #008000; stroke: #008000"/>
     <use xlink:href="#m1cf873e057" x="123.57603" y="73.888298" style="fill: #008000; stroke: #008000"/>
     <use xlink:href="#m1cf873e057" x="113.930367" y="61.344143" style="fill: #008000; stroke: #008000"/>
     <use xlink:href="#m1cf873e057" x="104.368449" y="48.752321" style="fill: #008000; stroke: #008000"/>
    </g>
   </g>
   <g id="PathCollection_11">
    <defs>
     <path id="mc11875031b" d="M 0 3 
C 0.795609 3 1.55874 2.683901 2.12132 2.12132 
C 2.683901 1.55874 3 0.795609 3 0 
C 3 -0.795609 2.683901 -1.55874 2.12132 -2.12132 
C 1.55874 -2.683901 0.795609 -3 0 -3 
C -0.795609 -3 -1.55874 -2.683901 -2.12132 -2.12132 
C -2.683901 -1.55874 -3 -0.795609 -3 0 
C -3 0.795609 -2.683901 1.55874 -2.12132 2.12132 
C -1.55874 2.683901 -0.795609 3 0 3 
z
" style="stroke: #0000ff"/>
    </defs>
    <g clip-path="url(#p699ca2de70)">
     <use xlink:href="#mc11875031b" x="300.480635" y="269.676526" style="fill: #0000ff; stroke: #0000ff"/>
     <use xlink:href="#mc11875031b" x="289.424304" y="257.874835" style="fill: #0000ff; stroke: #0000ff"/>
     <use xlink:href="#mc11875031b" x="278.452472" y="246.033334" style="fill: #0000ff; stroke: #0000ff"/>
     <use xlink:href="#mc11875031b" x="267.565012" y="234.15157" style="fill: #0000ff; stroke: #0000ff"/>
     <use xlink:href="#mc11875031b" x="256.761812" y="222.229093" style="fill: #0000ff; stroke: #0000ff"/>
     <use xlink:href="#mc11875031b" x="246.04277" y="210.265444" style="fill: #0000ff; stroke: #0000ff"/>
     <use xlink:href="#mc11875031b" x="235.407784" y="198.260154" style="fill: #0000ff; stroke: #0000ff"/>
     <use xlink:href="#mc11875031b" x="230.682059" y="182.059747" style="fill: #0000ff; stroke: #0000ff"/>
     <use xlink:href="#mc11875031b" x="225.964118" y="165.860854" style="fill: #0000ff; stroke: #0000ff"/>
     <use xlink:href="#mc11875031b" x="221.253574" y="149.662001" style="fill: #0000ff; stroke: #0000ff"/>
     <use xlink:href="#mc11875031b" x="210.86877" y="137.572384" style="fill: #0000ff; stroke: #0000ff"/>
     <use xlink:href="#mc11875031b" x="206.219993" y="121.35554" style="fill: #0000ff; stroke: #0000ff"/>
     <use xlink:href="#mc11875031b" x="195.972926" y="109.203243" style="fill: #0000ff; stroke: #0000ff"/>
     <use xlink:href="#mc11875031b" x="185.808805" y="97.004294" style="fill: #0000ff; stroke: #0000ff"/>
     <use xlink:href="#mc11875031b" x="175.727598" y="84.758163" style="fill: #0000ff; stroke: #0000ff"/>
     <use xlink:href="#mc11875031b" x="165.729286" y="72.464312" style="fill: #0000ff; stroke: #0000ff"/>
     <use xlink:href="#mc11875031b" x="155.813856" y="60.122189" style="fill: #0000ff; stroke: #0000ff"/>
     <use xlink:href="#mc11875031b" x="145.981304" y="47.731237" style="fill: #0000ff; stroke: #0000ff"/>
     <use xlink:href="#mc11875031b" x="136.231636" y="35.290883" style="fill: #0000ff; stroke: #0000ff"/>
     <use xlink:href="#mc11875031b" x="126.564864" y="22.800548" style="fill: #0000ff; stroke: #0000ff"/>
    </g>
   </g>
   <g id="PathCollection_12">
    <defs>
     <path id="me2d8ca6db7" d="M 0 3 
C 0.795609 3 1.55874 2.683901 2.12132 2.12132 
C 2.683901 1.55874 3 0.795609 3 0 
C 3 -0.795609 2.683901 -1.55874 2.12132 -2.12132 
C 1.55874 -2.683901 0.795609 -3 0 -3 
C -0.795609 -3 -1.55874 -2.683901 -2.12132 -2.12132 
C -2.683901 -1.55874 -3 -0.795609 -3 0 
C -3 0.795609 -2.683901 1.55874 -2.12132 2.12132 
C -1.55874 2.683901 -0.795609 3 0 3 
z
" style="stroke: #ffa500"/>
    </defs>
    <g clip-path="url(#p699ca2de70)">
     <use xlink:href="#me2d8ca6db7" x="300.480635" y="269.676526" style="fill: #ffa500; stroke: #ffa500"/>
     <use xlink:href="#me2d8ca6db7" x="289.424304" y="257.874835" style="fill: #ffa500; stroke: #ffa500"/>
     <use xlink:href="#me2d8ca6db7" x="278.452472" y="246.033334" style="fill: #ffa500; stroke: #ffa500"/>
     <use xlink:href="#me2d8ca6db7" x="267.565012" y="234.15157" style="fill: #ffa500; stroke: #ffa500"/>
     <use xlink:href="#me2d8ca6db7" x="256.761812" y="222.229093" style="fill: #ffa500; stroke: #ffa500"/>
     <use xlink:href="#me2d8ca6db7" x="246.04277" y="210.265444" style="fill: #ffa500; stroke: #ffa500"/>
     <use xlink:href="#me2d8ca6db7" x="235.407784" y="198.260154" style="fill: #ffa500; stroke: #ffa500"/>
     <use xlink:href="#me2d8ca6db7" x="221.823027" y="193.590541" style="fill: #ffa500; stroke: #ffa500"/>
     <use xlink:href="#me2d8ca6db7" x="211.361628" y="181.482198" style="fill: #ffa500; stroke: #ffa500"/>
     <use xlink:href="#me2d8ca6db7" x="200.984229" y="169.331295" style="fill: #ffa500; stroke: #ffa500"/>
     <use xlink:href="#me2d8ca6db7" x="196.458345" y="153.080095" style="fill: #ffa500; stroke: #ffa500"/>
     <use xlink:href="#me2d8ca6db7" x="186.220081" y="140.871259" style="fill: #ffa500; stroke: #ffa500"/>
     <use xlink:href="#me2d8ca6db7" x="173.060421" y="135.913502" style="fill: #ffa500; stroke: #ffa500"/>
     <use xlink:href="#me2d8ca6db7" x="159.96858" y="130.875294" style="fill: #ffa500; stroke: #ffa500"/>
     <use xlink:href="#me2d8ca6db7" x="146.945005" y="125.75706" style="fill: #ffa500; stroke: #ffa500"/>
     <use xlink:href="#me2d8ca6db7" x="133.990145" y="120.559227" style="fill: #ffa500; stroke: #ffa500"/>
     <use xlink:href="#me2d8ca6db7" x="121.104447" y="115.282225" style="fill: #ffa500; stroke: #ffa500"/>
     <use xlink:href="#me2d8ca6db7" x="108.288356" y="109.926483" style="fill: #ffa500; stroke: #ffa500"/>
     <use xlink:href="#me2d8ca6db7" x="95.542318" y="104.492435" style="fill: #ffa500; stroke: #ffa500"/>
     <use xlink:href="#me2d8ca6db7" x="82.866777" y="98.980512" style="fill: #ffa500; stroke: #ffa500"/>
    </g>
   </g>
   <g id="PathCollection_13">
    <defs>
     <path id="maaae7ed5e6" d="M 0 3 
C 0.795609 3 1.55874 2.683901 2.12132 2.12132 
C 2.683901 1.55874 3 0.795609 3 0 
C 3 -0.795609 2.683901 -1.55874 2.12132 -2.12132 
C 1.55874 -2.683901 0.795609 -3 0 -3 
C -0.795609 -3 -1.55874 -2.683901 -2.12132 -2.12132 
C -2.683901 -1.55874 -3 -0.795609 -3 0 
C -3 0.795609 -2.683901 1.55874 -2.12132 2.12132 
C -1.55874 2.683901 -0.795609 3 0 3 
z
" style="stroke: #ffff00"/>
    </defs>
    <g clip-path="url(#p699ca2de70)">
     <use xlink:href="#maaae7ed5e6" x="300.480635" y="269.676526" style="fill: #ffff00; stroke: #ffff00"/>
     <use xlink:href="#maaae7ed5e6" x="289.424304" y="257.874835" style="fill: #ffff00; stroke: #ffff00"/>
     <use xlink:href="#maaae7ed5e6" x="278.452472" y="246.033334" style="fill: #ffff00; stroke: #ffff00"/>
     <use xlink:href="#maaae7ed5e6" x="267.565012" y="234.15157" style="fill: #ffff00; stroke: #ffff00"/>
     <use xlink:href="#maaae7ed5e6" x="256.761812" y="222.229093" style="fill: #ffff00; stroke: #ffff00"/>
     <use xlink:href="#maaae7ed5e6" x="246.04277" y="210.265444" style="fill: #ffff00; stroke: #ffff00"/>
     <use xlink:href="#maaae7ed5e6" x="235.407784" y="198.260154" style="fill: #ffff00; stroke: #ffff00"/>
     <use xlink:href="#maaae7ed5e6" x="224.856769" y="186.212753" style="fill: #ffff00; stroke: #ffff00"/>
     <use xlink:href="#maaae7ed5e6" x="220.186774" y="169.999502" style="fill: #ffff00; stroke: #ffff00"/>
     <use xlink:href="#maaae7ed5e6" x="206.780325" y="165.245002" style="fill: #ffff00; stroke: #ffff00"/>
     <use xlink:href="#maaae7ed5e6" x="202.206301" y="149.007434" style="fill: #ffff00; stroke: #ffff00"/>
     <use xlink:href="#maaae7ed5e6" x="197.639182" y="132.768014" style="fill: #ffff00; stroke: #ffff00"/>
     <use xlink:href="#maaae7ed5e6" x="184.47649" y="127.882409" style="fill: #ffff00; stroke: #ffff00"/>
     <use xlink:href="#maaae7ed5e6" x="171.381146" y="122.915986" style="fill: #ffff00; stroke: #ffff00"/>
     <use xlink:href="#maaae7ed5e6" x="158.353602" y="117.86917" style="fill: #ffff00; stroke: #ffff00"/>
     <use xlink:href="#maaae7ed5e6" x="145.394308" y="112.742383" style="fill: #ffff00; stroke: #ffff00"/>
     <use xlink:href="#maaae7ed5e6" x="132.503716" y="107.536052" style="fill: #ffff00; stroke: #ffff00"/>
     <use xlink:href="#maaae7ed5e6" x="119.682275" y="102.250604" style="fill: #ffff00; stroke: #ffff00"/>
     <use xlink:href="#maaae7ed5e6" x="106.930432" y="96.886467" style="fill: #ffff00; stroke: #ffff00"/>
     <use xlink:href="#maaae7ed5e6" x="94.248636" y="91.444071" style="fill: #ffff00; stroke: #ffff00"/>
    </g>
   </g>
   <g id="PathCollection_14">
    <defs>
     <path id="m33e353e9c2" d="M 0 3 
C 0.795609 3 1.55874 2.683901 2.12132 2.12132 
C 2.683901 1.55874 3 0.795609 3 0 
C 3 -0.795609 2.683901 -1.55874 2.12132 -2.12132 
C 1.55874 -2.683901 0.795609 -3 0 -3 
C -0.795609 -3 -1.55874 -2.683901 -2.12132 -2.12132 
C -2.683901 -1.55874 -3 -0.795609 -3 0 
C -3 0.795609 -2.683901 1.55874 -2.12132 2.12132 
C -1.55874 2.683901 -0.795609 3 0 3 
z
" style="stroke: #808080"/>
    </defs>
    <g clip-path="url(#p699ca2de70)">
     <use xlink:href="#m33e353e9c2" x="300.480635" y="269.676526" style="fill: #808080; stroke: #808080"/>
     <use xlink:href="#m33e353e9c2" x="289.424304" y="257.874835" style="fill: #808080; stroke: #808080"/>
     <use xlink:href="#m33e353e9c2" x="278.452472" y="246.033334" style="fill: #808080; stroke: #808080"/>
     <use xlink:href="#m33e353e9c2" x="267.565012" y="234.15157" style="fill: #808080; stroke: #808080"/>
     <use xlink:href="#m33e353e9c2" x="256.761812" y="222.229093" style="fill: #808080; stroke: #808080"/>
     <use xlink:href="#m33e353e9c2" x="246.04277" y="210.265444" style="fill: #808080; stroke: #808080"/>
     <use xlink:href="#m33e353e9c2" x="235.407784" y="198.260154" style="fill: #808080; stroke: #808080"/>
     <use xlink:href="#m33e353e9c2" x="230.682059" y="182.059747" style="fill: #808080; stroke: #808080"/>
     <use xlink:href="#m33e353e9c2" x="225.964118" y="165.860854" style="fill: #808080; stroke: #808080"/>
     <use xlink:href="#m33e353e9c2" x="221.253574" y="149.662001" style="fill: #808080; stroke: #808080"/>
     <use xlink:href="#m33e353e9c2" x="216.550042" y="133.461711" style="fill: #808080; stroke: #808080"/>
     <use xlink:href="#m33e353e9c2" x="211.853132" y="117.258489" style="fill: #808080; stroke: #808080"/>
     <use xlink:href="#m33e353e9c2" x="207.162451" y="101.050832" style="fill: #808080; stroke: #808080"/>
     <use xlink:href="#m33e353e9c2" x="202.477608" y="84.837222" style="fill: #808080; stroke: #808080"/>
     <use xlink:href="#m33e353e9c2" x="197.798209" y="68.616129" style="fill: #808080; stroke: #808080"/>
     <use xlink:href="#m33e353e9c2" x="193.123856" y="52.386008" style="fill: #808080; stroke: #808080"/>
     <use xlink:href="#m33e353e9c2" x="188.454149" y="36.145296" style="fill: #808080; stroke: #808080"/>
     <use xlink:href="#m33e353e9c2" x="183.788687" y="19.892417" style="fill: #808080; stroke: #808080"/>
     <use xlink:href="#m33e353e9c2" x="179.127061" y="3.625774" style="fill: #808080; stroke: #808080"/>
     <use xlink:href="#m33e353e9c2" x="177.803652" y="-1" style="fill: #808080; stroke: #808080"/>
    </g>
   </g>
   <g id="PathCollection_15">
    <defs>
     <path id="m79f80f1f1d" d="M 0 3 
C 0.795609 3 1.55874 2.683901 2.12132 2.12132 
C 2.683901 1.55874 3 0.795609 3 0 
C 3 -0.795609 2.683901 -1.55874 2.12132 -2.12132 
C 1.55874 -2.683901 0.795609 -3 0 -3 
C -0.795609 -3 -1.55874 -2.683901 -2.12132 -2.12132 
C -2.683901 -1.55874 -3 -0.795609 -3 0 
C -3 0.795609 -2.683901 1.55874 -2.12132 2.12132 
C -1.55874 2.683901 -0.795609 3 0 3 
z
" style="stroke: #ff00ff"/>
    </defs>
    <g clip-path="url(#p699ca2de70)">
     <use xlink:href="#m79f80f1f1d" x="300.480635" y="269.676526" style="fill: #ff00ff; stroke: #ff00ff"/>
     <use xlink:href="#m79f80f1f1d" x="289.424304" y="257.874835" style="fill: #ff00ff; stroke: #ff00ff"/>
     <use xlink:href="#m79f80f1f1d" x="278.452472" y="246.033334" style="fill: #ff00ff; stroke: #ff00ff"/>
     <use xlink:href="#m79f80f1f1d" x="267.565012" y="234.15157" style="fill: #ff00ff; stroke: #ff00ff"/>
     <use xlink:href="#m79f80f1f1d" x="256.761812" y="222.229093" style="fill: #ff00ff; stroke: #ff00ff"/>
     <use xlink:href="#m79f80f1f1d" x="246.04277" y="210.265444" style="fill: #ff00ff; stroke: #ff00ff"/>
     <use xlink:href="#m79f80f1f1d" x="235.407784" y="198.260154" style="fill: #ff00ff; stroke: #ff00ff"/>
     <use xlink:href="#m79f80f1f1d" x="221.823027" y="193.590541" style="fill: #ff00ff; stroke: #ff00ff"/>
     <use xlink:href="#m79f80f1f1d" x="208.30474" y="188.838894" style="fill: #ff00ff; stroke: #ff00ff"/>
     <use xlink:href="#m79f80f1f1d" x="194.85337" y="184.00563" style="fill: #ff00ff; stroke: #ff00ff"/>
     <use xlink:href="#m79f80f1f1d" x="181.469358" y="179.091187" style="fill: #ff00ff; stroke: #ff00ff"/>
     <use xlink:href="#m79f80f1f1d" x="168.153149" y="174.095985" style="fill: #ff00ff; stroke: #ff00ff"/>
     <use xlink:href="#m79f80f1f1d" x="154.905185" y="169.020462" style="fill: #ff00ff; stroke: #ff00ff"/>
     <use xlink:href="#m79f80f1f1d" x="141.725907" y="163.865048" style="fill: #ff00ff; stroke: #ff00ff"/>
     <use xlink:href="#m79f80f1f1d" x="128.615754" y="158.630176" style="fill: #ff00ff; stroke: #ff00ff"/>
     <use xlink:href="#m79f80f1f1d" x="115.575166" y="153.316282" style="fill: #ff00ff; stroke: #ff00ff"/>
     <use xlink:href="#m79f80f1f1d" x="102.60458" y="147.923804" style="fill: #ff00ff; stroke: #ff00ff"/>
     <use xlink:href="#m79f80f1f1d" x="89.704432" y="142.453178" style="fill: #ff00ff; stroke: #ff00ff"/>
     <use xlink:href="#m79f80f1f1d" x="76.875158" y="136.904847" style="fill: #ff00ff; stroke: #ff00ff"/>
     <use xlink:href="#m79f80f1f1d" x="64.117192" y="131.27925" style="fill: #ff00ff; stroke: #ff00ff"/>
    </g>
   </g>
  </g>
 </g>
 <defs>
  <clipPath id="p699ca2de70">
   <path d="M 32.048085 288 
L 32.048085 0 
L 399.951915 0 
L 399.951915 288 
L 32.048085 288 
"/>
  </clipPath>
 </defs>
</svg>
